<svg width="37" height="37" viewBox="0 0 37 37" fill="none" xmlns="http://www.w3.org/2000/svg">
<path d="M11.5625 10.4062C11.2558 10.4062 10.9617 10.2844 10.7449 10.0676C10.5281 9.85075 10.4062 9.55666 10.4062 9.25V4.625C10.4062 4.31834 10.5281 4.02425 10.7449 3.80741C10.9617 3.59057 11.2558 3.46875 11.5625 3.46875C11.8692 3.46875 12.1633 3.59057 12.3801 3.80741C12.5969 4.02425 12.7188 4.31834 12.7188 4.625V9.25C12.7188 9.55666 12.5969 9.85075 12.3801 10.0676C12.1633 10.2844 11.8692 10.4062 11.5625 10.4062ZM25.4375 10.4062C25.1308 10.4062 24.8367 10.2844 24.6199 10.0676C24.4031 9.85075 24.2812 9.55666 24.2812 9.25V4.625C24.2812 4.31834 24.4031 4.02425 24.6199 3.80741C24.8367 3.59057 25.1308 3.46875 25.4375 3.46875C25.7442 3.46875 26.0383 3.59057 26.2551 3.80741C26.4719 4.02425 26.5938 4.31834 26.5938 4.625V9.25C26.5938 9.55666 26.4719 9.85075 26.2551 10.0676C26.0383 10.2844 25.7442 10.4062 25.4375 10.4062Z" fill="#023F45"/>
<path d="M30.0625 33.5312H6.9375C5.02506 33.5312 3.46875 31.9749 3.46875 30.0625V9.25C3.46875 7.33756 5.02506 5.78125 6.9375 5.78125H30.0625C31.9749 5.78125 33.5312 7.33756 33.5312 9.25V30.0625C33.5312 31.9749 31.9749 33.5312 30.0625 33.5312ZM6.9375 8.09375C6.63084 8.09375 6.33675 8.21557 6.11991 8.43241C5.90307 8.64925 5.78125 8.94334 5.78125 9.25V30.0625C5.78125 30.3692 5.90307 30.6633 6.11991 30.8801C6.33675 31.0969 6.63084 31.2188 6.9375 31.2188H30.0625C30.3692 31.2188 30.6633 31.0969 30.8801 30.8801C31.0969 30.6633 31.2188 30.3692 31.2188 30.0625V9.25C31.2188 8.94334 31.0969 8.64925 30.8801 8.43241C30.6633 8.21557 30.3692 8.09375 30.0625 8.09375H6.9375Z" fill="#023F45"/>
<path d="M32.375 15.0312H4.625C4.31834 15.0312 4.02425 14.9094 3.80741 14.6926C3.59057 14.4758 3.46875 14.1817 3.46875 13.875C3.46875 13.5683 3.59057 13.2742 3.80741 13.0574C4.02425 12.8406 4.31834 12.7188 4.625 12.7188H32.375C32.6817 12.7188 32.9758 12.8406 33.1926 13.0574C33.4094 13.2742 33.5312 13.5683 33.5312 13.875C33.5312 14.1817 33.4094 14.4758 33.1926 14.6926C32.9758 14.9094 32.6817 15.0312 32.375 15.0312ZM12.7188 17.3438H15.0312V19.6562H12.7188V17.3438ZM17.3438 17.3438H19.6562V19.6562H17.3438V17.3438ZM21.9688 17.3438H24.2812V19.6562H21.9688V17.3438ZM26.5938 17.3438H28.9062V19.6562H26.5938V17.3438ZM8.09375 21.9688H10.4062V24.2812H8.09375V21.9688ZM12.7188 21.9688H15.0312V24.2812H12.7188V21.9688ZM17.3438 21.9688H19.6562V24.2812H17.3438V21.9688ZM21.9688 21.9688H24.2812V24.2812H21.9688V21.9688ZM26.5938 21.9688H28.9062V24.2812H26.5938V21.9688ZM8.09375 26.5938H10.4062V28.9062H8.09375V26.5938ZM12.7188 26.5938H15.0312V28.9062H12.7188V26.5938ZM17.3438 26.5938H19.6562V28.9062H17.3438V26.5938Z" fill="#023F45"/>
</svg>
