<svg width="38" height="33" viewBox="0 0 38 33" fill="none" xmlns="http://www.w3.org/2000/svg">
<path d="M22.5924 9.89118V25.7704C22.5924 26.4998 22.5604 27.2373 22.5924 27.9627V27.9948L23.394 27.1932H11.4185L12.22 27.9948C12.204 26.2714 11.1179 24.7684 9.5107 24.1753C7.97969 23.6102 6.13607 24.1111 5.09402 25.3656C4.47279 26.1111 4.12812 27.0209 4.1201 27.9948L4.92168 27.1932H2.35663C2.33659 27.1932 1.99192 27.2132 1.97989 27.1892C1.98791 27.2052 2.16426 27.2253 2.00394 27.1852C1.98791 27.1812 1.87569 27.1571 1.87569 27.1491C1.90775 27.1611 1.93581 27.1772 1.96787 27.1892L1.87168 27.1411C1.83962 27.1251 1.81156 27.105 1.7795 27.085C1.6272 27.0008 1.89172 27.2092 1.77549 27.081C1.75545 27.0569 1.7274 27.0289 1.69934 27.0048C1.57109 26.8886 1.7795 27.1531 1.69533 27.0008C1.66728 26.9487 1.63922 26.8886 1.60315 26.8405C1.54704 26.7604 1.64724 27.0209 1.61518 26.8565C1.61117 26.8445 1.56708 26.7042 1.5791 26.7002C1.56708 26.7042 1.59113 26.8966 1.58712 26.6922V9.82706C1.58712 9.66273 1.58712 9.87916 1.5751 9.87515C1.56708 9.87114 1.61918 9.66674 1.63121 9.66674C1.64323 9.66674 1.55105 9.81904 1.61117 9.71083C1.63922 9.66674 1.66327 9.61865 1.69133 9.57456C1.77148 9.43428 1.59914 9.64269 1.6793 9.59059C1.71136 9.57055 1.74744 9.52246 1.77148 9.49841C1.88771 9.37016 1.62319 9.57857 1.77549 9.4944C1.80755 9.47837 1.83561 9.45833 1.86767 9.43829L1.91577 9.41425C1.99592 9.37817 1.97989 9.38218 1.87168 9.43428C1.87168 9.42226 2.00394 9.39821 2.02799 9.3902C2.20033 9.3381 1.85164 9.38619 2.032 9.3902H4.27641L3.47483 8.58862C3.47483 10.3361 4.00387 12.0915 5.01386 13.5183C6.04789 14.9812 7.47069 16.0794 9.14598 16.7046C12.4966 17.955 16.4724 16.8729 18.7288 14.0954C19.9993 12.5324 20.7087 10.6046 20.7087 8.58461L19.9071 9.38619H22.0954C22.1235 9.38619 22.1516 9.38619 22.1796 9.3902C22.2437 9.39421 22.2157 9.3902 22.1035 9.37817C22.1075 9.37016 22.3119 9.42627 22.3119 9.43428C22.2117 9.3902 22.1876 9.37817 22.2437 9.40623L22.3159 9.4423C22.3479 9.45833 22.376 9.47837 22.4081 9.49841C22.4802 9.54651 22.4682 9.53849 22.372 9.46635C22.384 9.45833 22.4682 9.55853 22.4842 9.57456C22.5403 9.63869 22.5323 9.62666 22.4602 9.53448C22.4802 9.56254 22.5002 9.59059 22.5163 9.62265C22.5243 9.63869 22.6004 9.74289 22.5884 9.76293C22.5443 9.65472 22.5363 9.63869 22.5644 9.72285C22.5764 9.75892 22.5844 9.79099 22.5924 9.82706C22.6085 9.91523 22.6085 9.8992 22.5884 9.77495C22.5924 9.81904 22.5924 9.85511 22.5924 9.89118C22.6004 10.312 22.9531 10.7128 23.394 10.6928C23.8188 10.6727 24.2036 10.3401 24.1956 9.89118C24.1795 9.10965 23.7507 8.35216 23.0293 8.0155C22.6285 7.82712 22.2277 7.79506 21.7989 7.79506H19.9071C19.4743 7.79506 19.1056 8.16379 19.1056 8.59664C19.1056 8.77298 19.1016 8.94933 19.0895 9.12568C19.0855 9.21786 19.0775 9.31004 19.0655 9.40222C19.0615 9.45833 19.0535 9.51043 19.0455 9.56654C19.0254 9.75892 19.0775 9.38218 19.0455 9.57055C18.9813 9.96332 18.8972 10.3521 18.7809 10.7328C18.7208 10.9212 18.6567 11.1056 18.5845 11.2859C18.5805 11.2979 18.5605 11.3701 18.5445 11.3861C18.5565 11.3541 18.5725 11.322 18.5845 11.2939C18.5725 11.326 18.5565 11.3581 18.5405 11.3901C18.4964 11.4863 18.4523 11.5825 18.4042 11.6787C18.2318 12.0234 18.0355 12.36 17.815 12.6767C17.7669 12.7488 17.7108 12.8169 17.6627 12.8891C17.5545 13.0374 17.775 12.7488 17.6587 12.8931C17.6267 12.9332 17.5946 12.9732 17.5585 13.0173C17.4383 13.1656 17.31 13.3099 17.1778 13.4502C17.0495 13.5824 16.9213 13.7107 16.785 13.8349C16.6527 13.9552 16.4884 14.1476 16.3241 14.2237C16.4964 14.1435 16.3722 14.1836 16.3201 14.2237L16.2359 14.2838C16.1558 14.3399 16.0796 14.396 15.9995 14.4481C15.8311 14.5604 15.6588 14.6646 15.4824 14.7648C15.3301 14.8489 15.1698 14.9291 15.0135 15.0052C14.9654 15.0293 14.9173 15.0493 14.8692 15.0734C14.8532 15.0814 14.8372 15.0894 14.8211 15.0934C14.741 15.1295 14.757 15.1215 14.8652 15.0734C14.8091 15.1335 14.6408 15.1615 14.5686 15.1896C14.1959 15.3259 13.8152 15.4341 13.4264 15.5102C13.3382 15.5263 13.246 15.5463 13.1579 15.5583C13.1218 15.5623 13.0296 15.5944 12.9936 15.5824C13.0016 15.5864 13.1939 15.5583 13.0416 15.5744C12.8212 15.5984 12.6008 15.6184 12.3763 15.6265C11.9635 15.6425 11.5587 15.6184 11.1499 15.5744C11.0537 15.5623 11.1179 15.6064 11.198 15.5824C11.1619 15.5944 11.0738 15.5623 11.0337 15.5583C10.9455 15.5423 10.8533 15.5263 10.7652 15.5102C10.5608 15.4702 10.3604 15.4221 10.16 15.3619C9.97962 15.3098 9.79927 15.2537 9.62292 15.1896C9.53876 15.1575 9.4586 15.1255 9.37443 15.0934C9.19809 15.0253 9.53876 15.1696 9.37043 15.0934C9.31431 15.0694 9.2582 15.0413 9.20209 15.0173C8.85742 14.8569 8.52877 14.6726 8.21215 14.4642C8.12397 14.4081 8.0358 14.3479 7.95164 14.2838L7.86747 14.2237C7.81136 14.1836 7.68712 14.1395 7.86346 14.2237C7.70315 14.1476 7.55085 13.9712 7.4226 13.851C7.13804 13.5945 6.86951 13.3139 6.62903 13.0173C6.59697 12.9773 6.56491 12.9372 6.52884 12.8931C6.42062 12.7608 6.61701 13.0173 6.52483 12.8891C6.4567 12.7969 6.39257 12.7047 6.32444 12.6125C6.20019 12.4322 6.08396 12.2438 5.97575 12.0554C5.87154 11.8711 5.77536 11.6827 5.68718 11.4903C5.66314 11.4422 5.6431 11.3941 5.62306 11.346C5.54691 11.1737 5.69119 11.5144 5.62306 11.342C5.58298 11.2418 5.54691 11.1416 5.51084 11.0414C5.35854 10.6166 5.24632 10.1798 5.17017 9.73488C5.16215 9.68277 5.15413 9.62666 5.14612 9.57456C5.11806 9.41024 5.16616 9.7469 5.14612 9.57055C5.1341 9.46234 5.12207 9.35012 5.11406 9.24191C5.09802 9.02949 5.09001 8.81707 5.09001 8.60465C5.09001 8.1718 4.72128 7.80308 4.28843 7.80308H3.03397C2.55703 7.80308 2.02799 7.75097 1.55907 7.87522C0.637253 8.11569 0.0160315 8.97338 0 9.91122V26.7083C0.0160315 27.6942 0.721418 28.612 1.71938 28.7723C2.14021 28.8404 2.57707 28.8124 3.0019 28.8124H4.92569C5.36254 28.8124 5.72325 28.4437 5.72726 28.0108C5.72726 27.9266 5.73127 27.8425 5.73528 27.7583C5.73928 27.7222 5.74329 27.6862 5.7473 27.6461C5.75532 27.5339 5.71925 27.8064 5.73928 27.6942C5.77135 27.5339 5.80341 27.3776 5.85551 27.2213C5.87154 27.1772 5.90361 27.0209 5.93968 26.9968C5.93567 27.0008 5.85551 27.1772 5.92365 27.0409L5.97174 26.9447C6.04388 26.8044 6.12404 26.6682 6.21622 26.5399C6.22825 26.5199 6.26432 26.4638 6.28035 26.4558C6.27634 26.4598 6.1521 26.604 6.25229 26.4958C6.30039 26.4437 6.34448 26.3916 6.39257 26.3395C6.44066 26.2874 6.49277 26.2393 6.54086 26.1912C6.57292 26.1632 6.60499 26.1351 6.64106 26.1031C6.74526 26.0109 6.64507 26.063 6.62102 26.1151C6.64106 26.071 6.75328 26.0189 6.79336 25.9948C6.85748 25.9508 6.92562 25.9107 6.99776 25.8706C7.05788 25.8345 7.122 25.8065 7.18613 25.7744L7.21018 25.7624C7.29033 25.7263 7.2743 25.7343 7.16609 25.7784C7.18212 25.7544 7.26228 25.7383 7.29033 25.7303C7.43462 25.6782 7.58291 25.6381 7.7312 25.6061C7.76727 25.5981 7.80334 25.5941 7.83941 25.586C7.95163 25.566 7.81938 25.562 7.79132 25.5901C7.8314 25.554 8.01175 25.57 8.06786 25.57C8.22016 25.566 8.36845 25.574 8.51675 25.586C8.66103 25.5981 8.48869 25.586 8.46865 25.578C8.49671 25.5901 8.5448 25.5901 8.57687 25.5981C8.66504 25.6141 8.75321 25.6341 8.84138 25.6582C8.90952 25.6782 8.97765 25.6983 9.04579 25.7223C9.07785 25.7343 9.11392 25.7464 9.14598 25.7584C9.31431 25.8185 9.02575 25.6943 9.12594 25.7504C9.26622 25.8265 9.4105 25.8906 9.54276 25.9788C9.60288 26.0189 9.65899 26.059 9.7151 26.0991C9.80328 26.1592 9.60689 25.9948 9.67502 26.071C9.70308 26.1031 9.74316 26.1271 9.77522 26.1552C9.89546 26.2594 9.99565 26.3756 10.1039 26.4958C10.168 26.568 10.1399 26.4918 10.0758 26.4558C10.1039 26.4718 10.1359 26.5359 10.152 26.564C10.2041 26.6361 10.2482 26.7083 10.2922 26.7844C10.3323 26.8525 10.3684 26.9247 10.4045 26.9928C10.4045 26.9888 10.4526 27.081 10.4485 27.089C10.4045 26.9808 10.3964 26.9648 10.4285 27.0449C10.4365 27.0609 10.4405 27.077 10.4485 27.093C10.5127 27.2613 10.5608 27.4377 10.5928 27.614C10.6008 27.6461 10.6008 27.6942 10.6129 27.7222C10.5848 27.6501 10.5968 27.574 10.6089 27.7022C10.6169 27.8064 10.6209 27.9066 10.6249 28.0108C10.6289 28.4437 10.9896 28.8124 11.4265 28.8124H23.402C23.8349 28.8124 24.2036 28.4437 24.2036 28.0108V12.1316C24.2036 11.4022 24.2236 10.6687 24.2036 9.93928V9.90721C24.2036 9.48639 23.8349 9.0856 23.402 9.10564C22.9611 9.10965 22.5924 9.4423 22.5924 9.89118Z" fill="#023F45"/>
<path d="M36.3756 21.4378V25.0489C36.3756 25.582 36.3796 26.111 36.3756 26.6441V26.7563C36.3756 26.9046 36.4076 26.6441 36.3796 26.7363C36.3716 26.7603 36.3475 26.9206 36.3315 26.9206C36.3235 26.9206 36.4277 26.7403 36.3515 26.8765C36.3355 26.9086 36.3195 26.9407 36.2994 26.9687C36.2874 26.9887 36.2674 27.0128 36.2553 27.0368C36.2193 27.125 36.3595 26.9487 36.2834 26.9968C36.2633 27.0088 36.2473 27.0368 36.2313 27.0529C36.2112 27.0729 36.1952 27.0889 36.1752 27.105C36.1311 27.1451 36.1511 27.129 36.2353 27.0609C36.2393 27.0769 36.087 27.1531 36.079 27.1571C36.071 27.1611 36.0149 27.1972 36.0068 27.1932C35.9988 27.1891 36.1712 27.137 36.0469 27.1691C36.0149 27.1771 35.9748 27.1851 35.9427 27.1972C35.8465 27.2252 35.9107 27.1571 35.9948 27.1932C35.9708 27.1811 35.9066 27.1972 35.8786 27.1972H33.5821L34.3836 27.9987C34.3676 26.2753 33.2815 24.7724 31.6743 24.1792C30.1433 23.6141 28.2997 24.1151 27.2576 25.3696C26.6364 26.115 26.2917 27.0248 26.2837 27.9987L27.0853 27.1972H23.398L24.1996 27.9987V15.5302C24.1996 14.9571 24.2237 14.3759 24.1996 13.7988V13.7748L23.398 14.5763H30.4679C30.512 14.5763 30.5561 14.5803 30.6002 14.5803C30.7445 14.5844 30.4639 14.5483 30.6603 14.5924C30.6884 14.6004 30.7204 14.6084 30.7485 14.6164C30.7725 14.6244 30.9369 14.6725 30.8246 14.6365C30.7325 14.6084 30.8206 14.6325 30.8407 14.6445C30.8768 14.6645 30.9128 14.6805 30.9489 14.7006C30.9769 14.7166 31.1493 14.8409 31.0691 14.7767C30.989 14.7126 31.0731 14.7807 31.0812 14.7928C31.1092 14.8208 31.1413 14.8489 31.1693 14.8769C31.1974 14.909 31.2254 14.9371 31.2535 14.9691C31.4379 15.1815 31.6142 15.402 31.7946 15.6144C32.6963 16.6885 33.5941 17.7626 34.4959 18.8367C34.9007 19.3217 35.3055 19.8026 35.7103 20.2876C35.8305 20.4319 35.9507 20.5761 36.075 20.7204C36.107 20.7565 36.1351 20.7926 36.1672 20.8286C36.1752 20.8367 36.1832 20.8487 36.1912 20.8567C36.2273 20.8888 36.1151 20.7365 36.1712 20.8326C36.2072 20.8968 36.2513 20.9609 36.2874 21.025C36.3074 21.0611 36.3355 21.1613 36.2874 21.009C36.2994 21.0411 36.3074 21.0691 36.3195 21.1012C36.3235 21.1172 36.3916 21.3016 36.3756 21.3176C36.3756 21.3176 36.3635 21.1132 36.3716 21.2976C36.3756 21.3497 36.3756 21.3937 36.3756 21.4378C36.3836 21.8587 36.7403 22.2594 37.1771 22.2394C37.606 22.2194 37.9867 21.8867 37.9787 21.4378C37.9667 20.7886 37.7342 20.2234 37.3214 19.7265C37.2493 19.6423 37.1811 19.5581 37.109 19.474C36.7603 19.0572 36.4076 18.6363 36.0589 18.2195C35.1131 17.0893 34.1632 15.9551 33.2174 14.8248C32.9568 14.5122 32.6963 14.1996 32.4358 13.891C31.9308 13.2898 31.1934 12.9772 30.4118 12.9732C29.2536 12.9692 28.0913 12.9732 26.933 12.9732C25.7747 12.9732 24.6124 12.9572 23.4542 12.9732H23.394C22.9612 12.9732 22.5925 13.3419 22.5925 13.7748V26.2433C22.5925 26.8204 22.5764 27.3976 22.5925 27.9747V27.9987C22.5925 28.4316 22.9612 28.8003 23.394 28.8003H27.0813C27.5181 28.8003 27.8789 28.4316 27.8829 27.9987C27.8829 27.9146 27.8869 27.8304 27.8909 27.7462C27.8949 27.7102 27.8989 27.6741 27.9029 27.634C27.9109 27.5218 27.8748 27.7943 27.8949 27.6821C27.927 27.5218 27.959 27.3655 28.0111 27.2092C28.0271 27.1651 28.0592 27.0088 28.0953 26.9847C28.0913 26.9887 28.0111 27.1651 28.0793 27.0288L28.1273 26.9326C28.1995 26.7924 28.2796 26.6561 28.3718 26.5278C28.3839 26.5078 28.4199 26.4517 28.436 26.4437C28.4319 26.4477 28.3077 26.592 28.4079 26.4838C28.456 26.4317 28.5001 26.3795 28.5482 26.3274C28.5963 26.2753 28.6484 26.2273 28.6965 26.1792C28.7285 26.1511 28.7606 26.123 28.7967 26.091C28.9009 25.9988 28.8007 26.0509 28.7766 26.103C28.7967 26.0589 28.9089 26.0068 28.949 25.9828C29.0131 25.9387 29.0812 25.8986 29.1534 25.8585C29.2135 25.8225 29.2776 25.7944 29.3417 25.7623C29.4499 25.7062 29.3738 25.6942 29.3217 25.7663C29.3417 25.7423 29.4179 25.7263 29.4459 25.7183C29.5902 25.6661 29.7385 25.6261 29.8868 25.594C29.9229 25.586 29.9589 25.582 29.995 25.574C30.1072 25.5539 29.979 25.5499 29.9469 25.578C29.987 25.5419 30.1674 25.5579 30.2235 25.5579C30.3758 25.5539 30.5241 25.5619 30.6723 25.574C30.8166 25.586 30.6403 25.574 30.6243 25.5659C30.6523 25.578 30.7004 25.578 30.7325 25.586C30.8206 25.602 30.9088 25.6221 30.997 25.6461C31.0651 25.6661 31.1333 25.6862 31.2014 25.7102C31.2335 25.7223 31.2695 25.7343 31.3016 25.7463C31.4699 25.8064 31.1814 25.6822 31.2815 25.7383C31.4218 25.8144 31.5661 25.8786 31.6984 25.9667C31.7585 26.0068 31.8146 26.0469 31.8707 26.087C31.9589 26.1471 31.7625 25.9828 31.8306 26.0589C31.8587 26.091 31.8988 26.115 31.9308 26.1431C32.0511 26.2473 32.1553 26.3635 32.2595 26.4838C32.3236 26.5559 32.2995 26.4797 32.2314 26.4437C32.2595 26.4597 32.2915 26.5238 32.3076 26.5519C32.3597 26.624 32.4038 26.6962 32.4478 26.7723C32.4879 26.8405 32.524 26.9126 32.5601 26.9807C32.5601 26.9767 32.6082 27.0689 32.6041 27.0769C32.5601 26.9687 32.552 26.9527 32.5841 27.0328C32.5921 27.0489 32.5961 27.0649 32.6041 27.0809C32.6683 27.2493 32.7164 27.4256 32.7484 27.602C32.7564 27.634 32.7564 27.6821 32.7685 27.7102C32.7404 27.638 32.7524 27.5619 32.7645 27.6901C32.7725 27.7943 32.7765 27.8945 32.7805 27.9987C32.7845 28.4316 33.1452 28.8003 33.5821 28.8003H35.4858C35.8345 28.8003 36.1912 28.8163 36.5279 28.7001C37.3455 28.4156 37.8785 27.7222 37.9747 26.8685C38.0228 26.4196 37.9867 25.9507 37.9867 25.5018V21.4418C37.9867 21.021 37.618 20.6202 37.1852 20.6403C36.7443 20.6563 36.3756 20.989 36.3756 21.4378ZM10.6129 27.9987C10.6129 28.0829 10.6089 28.1671 10.6049 28.2512C10.6009 28.2873 10.5969 28.3234 10.5929 28.3635C10.5849 28.4757 10.6209 28.2031 10.6009 28.3154C10.5688 28.4757 10.5368 28.632 10.4847 28.7883C10.4686 28.8324 10.4366 28.9887 10.4005 29.0127C10.4045 29.0087 10.4847 28.8324 10.4165 28.9686L10.3684 29.0648C10.2963 29.2051 10.2161 29.3414 10.1239 29.4696C10.1119 29.4897 10.0799 29.5458 10.0598 29.5538C10.1239 29.5217 10.152 29.4416 10.0879 29.5137C10.0398 29.5658 9.99569 29.6179 9.9476 29.67C9.89149 29.7261 9.83538 29.7822 9.77927 29.8343C9.75522 29.8584 9.72716 29.8784 9.69911 29.9025C9.5949 29.9947 9.6951 29.9426 9.71915 29.8905C9.69911 29.9385 9.56284 30.0027 9.52677 30.0267C9.46665 30.0668 9.40653 30.1029 9.34642 30.1349C9.27828 30.175 9.20614 30.2071 9.134 30.2431C9.03781 30.2912 9.15003 30.2672 9.17808 30.2271C9.15804 30.2512 9.0819 30.2672 9.05384 30.2752C8.90956 30.3273 8.76127 30.3674 8.61297 30.3995C8.5769 30.4075 8.54083 30.4115 8.50476 30.4195C8.36449 30.4475 8.53282 30.4115 8.55286 30.4155C8.46468 30.4115 8.36449 30.4355 8.27631 30.4355C8.12401 30.4395 7.97973 30.4315 7.82743 30.4195C7.64307 30.4075 7.96771 30.4475 7.84747 30.4235C7.8114 30.4155 7.77533 30.4115 7.73926 30.4035C7.6591 30.3874 7.57894 30.3674 7.50279 30.3474C7.42664 30.3273 7.34648 30.2993 7.27033 30.2752C7.23827 30.2632 7.2022 30.2512 7.17014 30.2391C7.06994 30.2031 7.3064 30.3113 7.21422 30.2552C7.07796 30.171 6.92966 30.1109 6.7974 30.0267C6.75732 30.0027 6.62506 29.9385 6.60503 29.8905C6.60903 29.8945 6.75332 30.0187 6.6451 29.9185C6.61705 29.8945 6.593 29.8744 6.56495 29.8504C6.44872 29.7462 6.3405 29.6299 6.2363 29.5097C6.1361 29.3975 6.25634 29.5458 6.26436 29.5498C6.24832 29.5418 6.21626 29.4817 6.20023 29.4656C6.16015 29.4095 6.12007 29.3494 6.084 29.2893C6.04392 29.2211 6.00384 29.153 5.96777 29.0809L5.91968 28.9847C5.85555 28.8564 5.88361 28.9767 5.92369 29.0047C5.88761 28.9807 5.85555 28.8203 5.83952 28.7803C5.81547 28.7041 5.79143 28.624 5.77139 28.5478C5.75535 28.4757 5.73932 28.4075 5.7273 28.3354C5.70726 28.2232 5.70325 28.3514 5.73131 28.3835C5.71127 28.3594 5.71928 28.2472 5.71528 28.2192C5.70325 28.0709 5.70325 27.9186 5.71528 27.7703C5.71928 27.7342 5.72329 27.6981 5.72329 27.6581C5.73532 27.5138 5.72329 27.6861 5.71528 27.7062C5.74734 27.626 5.74734 27.5218 5.76738 27.4376C5.80345 27.2893 5.85154 27.1451 5.90765 27.0008C5.94372 26.9006 5.83952 27.141 5.89162 27.0449C5.90765 27.0128 5.91968 26.9807 5.93571 26.9487C5.97579 26.8685 6.01587 26.7924 6.06396 26.7162C6.10003 26.6561 6.14011 26.596 6.18019 26.5399L6.24031 26.4557C6.30443 26.3595 6.11206 26.604 6.22828 26.4717C6.3365 26.3555 6.43669 26.2393 6.55693 26.1311C6.58499 26.107 6.60903 26.087 6.63709 26.0629C6.70923 25.9988 6.63308 26.0269 6.59701 26.091C6.62106 26.0429 6.72125 25.9988 6.76935 25.9707C6.90161 25.8826 7.04188 25.8104 7.18617 25.7383C7.32244 25.6702 7.14208 25.7503 7.14208 25.7543C7.1501 25.7423 7.22224 25.7223 7.24228 25.7142C7.31843 25.6862 7.39458 25.6621 7.47073 25.6381C7.53886 25.6181 7.611 25.602 7.67914 25.586C7.71521 25.578 7.75128 25.57 7.78735 25.5659C7.97572 25.5339 7.71521 25.57 7.79136 25.5619C7.95167 25.5499 8.10798 25.5379 8.2683 25.5419C8.34445 25.5459 8.41659 25.5499 8.49274 25.5579C8.56087 25.5619 8.59293 25.602 8.44464 25.5499C8.49274 25.566 8.55686 25.57 8.60496 25.578C8.77329 25.614 8.93761 25.6621 9.09793 25.7223C9.134 25.7343 9.21816 25.7944 9.12598 25.7303C9.02178 25.6581 9.17007 25.7543 9.19812 25.7663C9.27027 25.8024 9.3384 25.8385 9.40653 25.8786C9.48268 25.9227 9.55483 25.9707 9.62697 26.0228C9.63498 26.0309 9.70312 26.0669 9.71113 26.087C9.62697 26.0188 9.60693 26.0068 9.65102 26.0429C9.67105 26.0589 9.69109 26.075 9.71113 26.095C9.83939 26.2032 9.95161 26.3234 10.0638 26.4477C10.0678 26.4557 10.0758 26.4597 10.0799 26.4677C10.132 26.5359 10.1239 26.5198 10.0518 26.4276C10.0799 26.4437 10.1119 26.5078 10.128 26.5359C10.1801 26.608 10.2241 26.6801 10.2682 26.7563C10.3083 26.8244 10.3444 26.8966 10.3804 26.9647C10.3804 26.9607 10.4285 27.0529 10.4245 27.0609C10.3804 26.9527 10.3724 26.9366 10.4045 27.0168C10.4125 27.0328 10.4165 27.0489 10.4245 27.0649C10.4887 27.2332 10.5368 27.4096 10.5688 27.5859C10.5768 27.618 10.5768 27.6661 10.5889 27.6941C10.5608 27.622 10.5728 27.5458 10.5849 27.6741C10.6089 27.7903 10.6129 27.8945 10.6129 27.9987C10.6169 28.4196 10.9776 28.8203 11.4145 28.8003C11.8473 28.7803 12.2201 28.4476 12.2161 27.9987C12.2 26.2753 11.1139 24.7764 9.50673 24.1792C7.97171 23.6101 6.10805 24.1231 5.07401 25.3896C3.99189 26.7122 3.7955 28.5999 4.69327 30.0828C5.58702 31.5577 7.3064 32.2832 8.98971 31.9665C10.8614 31.6138 12.204 29.8744 12.2201 28.0027C12.2241 27.5819 11.8473 27.1811 11.4185 27.2012C10.9776 27.2132 10.6169 27.5458 10.6129 27.9987Z" fill="#023F45"/>
<path d="M32.7767 27.9987C32.7767 28.0829 32.7727 28.1671 32.7687 28.2512C32.7647 28.2873 32.7607 28.3234 32.7567 28.3635C32.7487 28.4757 32.7848 28.2031 32.7647 28.3154C32.7327 28.4757 32.7006 28.632 32.6485 28.7883C32.6325 28.8324 32.6004 28.9887 32.5643 29.0127C32.5683 29.0087 32.6485 28.8324 32.5804 28.9686L32.5323 29.0648C32.4601 29.2051 32.38 29.3414 32.2878 29.4696C32.2758 29.4897 32.2437 29.5458 32.2237 29.5538C32.2878 29.5217 32.3158 29.4456 32.2517 29.5137C32.2036 29.5658 32.1595 29.6179 32.1114 29.67C32.0553 29.7261 31.9992 29.7822 31.9431 29.8343C31.9191 29.8584 31.891 29.8784 31.8629 29.9025C31.7587 29.9947 31.8589 29.9426 31.883 29.8905C31.8629 29.9385 31.7267 30.0027 31.6906 30.0267C31.6305 30.0668 31.5704 30.1029 31.5103 30.1349C31.4421 30.175 31.37 30.2071 31.2978 30.2431C31.2016 30.2912 31.3139 30.2672 31.3419 30.2271C31.3219 30.2512 31.2457 30.2672 31.2177 30.2752C31.0734 30.3273 30.9251 30.3674 30.7768 30.3995C30.7407 30.4075 30.7047 30.4115 30.6686 30.4195C30.5283 30.4475 30.6967 30.4115 30.7167 30.4155C30.6285 30.4115 30.5283 30.4355 30.4401 30.4355C30.2878 30.4395 30.1436 30.4315 29.9913 30.4195C29.8069 30.4075 30.1315 30.4475 30.0113 30.4235C29.9752 30.4155 29.9392 30.4115 29.9031 30.4035C29.8229 30.3874 29.7428 30.3674 29.6666 30.3474C29.5905 30.3273 29.5103 30.2993 29.4342 30.2752C29.4021 30.2632 29.366 30.2512 29.334 30.2391C29.2338 30.2031 29.4702 30.3113 29.3781 30.2552C29.2418 30.171 29.0935 30.1109 28.9612 30.0267C28.9212 30.0027 28.7889 29.9385 28.7689 29.8905C28.7729 29.8945 28.9172 30.0187 28.8089 29.9185C28.7809 29.8945 28.7568 29.8744 28.7288 29.8504C28.6126 29.7462 28.5043 29.6299 28.4001 29.5097C28.2999 29.3975 28.4202 29.5458 28.4282 29.5498C28.4122 29.5418 28.3801 29.4817 28.3641 29.4656C28.324 29.4095 28.2839 29.3494 28.2478 29.2893C28.2078 29.2211 28.1677 29.153 28.1316 29.0809L28.0835 28.9847C28.0194 28.8564 28.0474 28.9767 28.0875 29.0047C28.0514 28.9807 28.0194 28.8204 28.0034 28.7803C27.9793 28.7041 27.9553 28.624 27.9352 28.5478C27.9192 28.4757 27.9032 28.4075 27.8911 28.3354C27.8711 28.2232 27.8671 28.3514 27.8951 28.3835C27.8751 28.3594 27.8831 28.2472 27.8791 28.2192C27.8671 28.0709 27.8671 27.9186 27.8791 27.7703C27.8831 27.7342 27.8871 27.6981 27.8871 27.6581C27.8992 27.5138 27.8871 27.6861 27.8791 27.7062C27.9112 27.626 27.9112 27.5218 27.9312 27.4376C27.9673 27.2893 28.0154 27.1451 28.0715 27.0008C28.1076 26.9006 28.0034 27.141 28.0555 27.0449C28.0715 27.0128 28.0835 26.9807 28.0995 26.9487C28.1396 26.8685 28.1797 26.7924 28.2278 26.7162C28.2639 26.6561 28.3039 26.596 28.344 26.5399L28.4041 26.4557C28.4683 26.3595 28.2759 26.604 28.3921 26.4717C28.5003 26.3555 28.6005 26.2393 28.7208 26.1311C28.7488 26.107 28.7729 26.087 28.8009 26.0629C28.8731 25.9988 28.7969 26.0269 28.7608 26.091C28.7849 26.0429 28.8851 25.9988 28.9332 25.9707C29.0654 25.8826 29.2057 25.8104 29.35 25.7383C29.4863 25.6702 29.3059 25.7503 29.3059 25.7543C29.3139 25.7423 29.3861 25.7223 29.4061 25.7142C29.4823 25.6862 29.5584 25.6621 29.6346 25.6381C29.7027 25.6181 29.7748 25.602 29.843 25.586C29.879 25.578 29.9151 25.57 29.9512 25.566C30.1396 25.5339 29.879 25.57 29.9552 25.5619C30.1155 25.5499 30.2718 25.5379 30.4321 25.5419C30.5083 25.5459 30.5804 25.5499 30.6566 25.5579C30.7247 25.5619 30.7568 25.602 30.6085 25.5499C30.6566 25.566 30.7207 25.57 30.7688 25.578C30.9371 25.614 31.1014 25.6621 31.2618 25.7223C31.2978 25.7343 31.382 25.7944 31.2898 25.7303C31.1856 25.6581 31.3339 25.7543 31.362 25.7663C31.4341 25.8024 31.5022 25.8385 31.5704 25.8786C31.6465 25.9227 31.7187 25.9707 31.7908 26.0229C31.7988 26.0309 31.867 26.0669 31.875 26.087C31.7908 26.0188 31.7708 26.0068 31.8148 26.0429C31.8349 26.0589 31.8549 26.075 31.875 26.095C32.0032 26.2032 32.1154 26.3234 32.2277 26.4477C32.2317 26.4557 32.2397 26.4597 32.2437 26.4677C32.2958 26.5359 32.2878 26.5198 32.2156 26.4276C32.2437 26.4437 32.2758 26.5078 32.2918 26.5359C32.3439 26.608 32.388 26.6801 32.4321 26.7563C32.4721 26.8244 32.5082 26.8966 32.5443 26.9647C32.5443 26.9607 32.5924 27.0529 32.5884 27.0609C32.5443 26.9527 32.5363 26.9366 32.5683 27.0168C32.5763 27.0328 32.5804 27.0489 32.5884 27.0649C32.6525 27.2332 32.7006 27.4096 32.7327 27.5859C32.7407 27.618 32.7407 27.6661 32.7527 27.6941C32.7246 27.622 32.7367 27.5458 32.7487 27.6741C32.7727 27.7903 32.7767 27.8945 32.7767 27.9987C32.7807 28.4196 33.1415 28.8203 33.5783 28.8003C34.0112 28.7803 34.3839 28.4476 34.3799 27.9987C34.3639 26.2753 33.2777 24.7764 31.6706 24.1792C30.1355 23.6101 28.2719 24.1231 27.2379 25.3896C26.1557 26.7122 25.9593 28.5999 26.8571 30.0828C27.7509 31.5577 29.4702 32.2832 31.1535 31.9665C33.0252 31.6138 34.3679 29.8744 34.3839 28.0027C34.3879 27.5819 34.0112 27.1811 33.5823 27.2012C33.1415 27.2132 32.7807 27.5458 32.7767 27.9987ZM19.1059 8.59258C19.1059 8.76892 19.1019 8.94527 19.0898 9.12162C19.0858 9.2138 19.0778 9.30598 19.0658 9.39816C19.0618 9.45427 19.0538 9.50637 19.0457 9.56248C19.0297 9.72681 19.0738 9.39014 19.0457 9.56649C18.9816 9.95926 18.8975 10.348 18.7812 10.7288C18.7251 10.9091 18.665 11.0855 18.5929 11.2578C18.5808 11.2899 18.5688 11.358 18.5448 11.3821C18.5568 11.35 18.5728 11.3179 18.5848 11.2899C18.5728 11.3219 18.5568 11.354 18.5407 11.3861C18.4967 11.4823 18.4526 11.5784 18.4045 11.6746C18.2321 12.0193 18.0358 12.356 17.8153 12.6726C17.7672 12.7447 17.7111 12.8129 17.663 12.885C17.5588 13.0293 17.7512 12.7808 17.675 12.869C17.647 12.901 17.6189 12.9371 17.5949 12.9732C17.4747 13.1215 17.3464 13.2658 17.2141 13.406C16.9496 13.6866 16.6651 13.9431 16.3645 14.1836C16.2202 14.2998 16.5088 14.0794 16.3605 14.1876C16.3324 14.2076 16.3044 14.2277 16.2763 14.2517C16.1921 14.3118 16.104 14.3719 16.0158 14.4321C15.8555 14.5403 15.6911 14.6405 15.5228 14.7367C15.3625 14.8288 15.1982 14.913 15.0298 14.9932C14.9577 15.0292 14.8455 15.1054 14.7653 15.1134C14.8816 15.1054 14.8856 15.0653 14.8094 15.0934C14.7413 15.1174 14.6772 15.1455 14.609 15.1695C14.2403 15.3058 13.8595 15.418 13.4708 15.4982C13.3826 15.5182 13.2904 15.5342 13.2023 15.5503C13.1582 15.5583 13.1141 15.5663 13.066 15.5703C12.9778 15.5823 12.9498 15.6344 13.09 15.5703C13.0219 15.6064 12.8936 15.5943 12.8135 15.6024C12.7013 15.6144 12.5931 15.6224 12.4808 15.6264C12.072 15.6464 11.6592 15.6344 11.2504 15.5903C11.2063 15.5863 11.1262 15.5903 11.0861 15.5703C11.2224 15.6384 11.1983 15.5863 11.1101 15.5703C11.0099 15.5543 10.9138 15.5382 10.8136 15.5182C10.6172 15.4821 10.4248 15.434 10.2324 15.3819C10.0521 15.3338 9.87171 15.2777 9.69536 15.2136C9.60318 15.1815 9.51099 15.1455 9.41881 15.1094C9.40679 15.1054 9.33465 15.0853 9.31862 15.0693C9.42683 15.1174 9.44286 15.1214 9.3627 15.0894C9.33064 15.0733 9.29858 15.0613 9.26651 15.0453C8.91382 14.8849 8.57315 14.7006 8.24851 14.4882C8.10022 14.392 7.95995 14.2918 7.81566 14.1876C7.66737 14.0794 7.95594 14.2998 7.81165 14.1836C7.7836 14.1635 7.75554 14.1395 7.7315 14.1194C7.64332 14.0473 7.55515 13.9752 7.47098 13.899C7.19043 13.6505 6.92591 13.382 6.68544 13.0934C6.62131 13.0213 6.5652 12.9451 6.50509 12.869C6.42894 12.7808 6.62131 13.0293 6.51711 12.885C6.48505 12.8409 6.45298 12.8009 6.42493 12.7568C6.31271 12.6005 6.20449 12.4401 6.1043 12.2758C6.00811 12.1195 5.91593 11.9552 5.83176 11.7909C5.78767 11.7027 5.74359 11.6185 5.70351 11.5304C5.68748 11.4983 5.67545 11.4662 5.65942 11.4342C5.64339 11.4021 5.63137 11.37 5.61534 11.338C5.57926 11.2578 5.58728 11.2738 5.63538 11.3821C5.59129 11.338 5.55923 11.1937 5.53919 11.1336C5.50712 11.0494 5.47907 10.9652 5.45101 10.8811C5.38288 10.6767 5.32276 10.4683 5.27066 10.2599C5.22657 10.0835 5.1905 9.90716 5.15844 9.72681C5.15042 9.6747 5.14241 9.61859 5.13439 9.56649C5.11034 9.4182 5.13439 9.60657 5.1384 9.61459C5.09431 9.53042 5.11034 9.35007 5.10233 9.25788C5.07026 8.88515 5.06626 8.51242 5.0903 8.13969C5.09832 8.03949 5.10633 7.93528 5.11435 7.83509C5.11836 7.791 5.12637 7.7429 5.13038 7.69882C5.15042 7.50644 5.10233 7.88318 5.13038 7.69481C5.16245 7.49442 5.19451 7.29803 5.2386 7.10164C5.32677 6.71689 5.443 6.33614 5.58728 5.96741C5.60331 5.92734 5.62335 5.88325 5.63538 5.84317C5.67545 5.73496 5.55121 6.02753 5.62736 5.86321C5.66343 5.78305 5.6995 5.70289 5.73958 5.62274C5.83176 5.43036 5.93196 5.246 6.04017 5.06163C6.12834 4.90933 6.22453 4.76104 6.32473 4.61676C6.37283 4.54462 6.42493 4.47248 6.47703 4.40033C6.50508 4.36426 6.53715 4.30414 6.57322 4.27208C6.50108 4.36426 6.49306 4.37629 6.54516 4.30815L6.59326 4.24803C6.82972 3.95546 7.09024 3.67891 7.36678 3.42642C7.50706 3.29416 7.65535 3.17392 7.80765 3.04968C7.91987 2.9575 7.77558 3.06972 7.77158 3.07773C7.79162 3.04567 7.86776 3.00559 7.89983 2.98154C7.98399 2.92142 8.07217 2.8573 8.16034 2.80119C8.48097 2.58476 8.82164 2.39238 9.17433 2.22806C9.23445 2.20001 9.35068 2.12386 9.41881 2.11985C9.38675 2.13187 9.35469 2.1479 9.32663 2.15993C9.3587 2.1479 9.39076 2.13187 9.42683 2.11985C9.45889 2.10783 9.49496 2.09179 9.52703 2.07977C9.72742 2.00362 9.93182 1.93549 10.1362 1.87537C10.3086 1.82327 10.4849 1.77918 10.6613 1.74311C10.7494 1.72307 10.8376 1.70704 10.9298 1.691C10.9819 1.68299 11.038 1.67097 11.0941 1.66295C11.1302 1.65894 11.1662 1.65093 11.2023 1.64692C11.0901 1.66295 11.062 1.66696 11.1262 1.65894C11.527 1.61486 11.9277 1.59081 12.3285 1.60283C12.5329 1.60684 12.7373 1.62287 12.9417 1.64291L13.05 1.65493C13.2423 1.67497 12.8656 1.62287 13.054 1.65493C13.1622 1.67097 13.2704 1.691 13.3786 1.71104C13.7674 1.78719 14.1521 1.8914 14.5249 2.02366C14.609 2.05572 14.6932 2.08378 14.7733 2.11985C14.7894 2.12786 14.8054 2.13187 14.8214 2.13989C14.9016 2.17195 14.8856 2.16794 14.7774 2.11985C14.8014 2.11985 14.8495 2.15191 14.8735 2.16393C15.0659 2.25211 15.2583 2.34429 15.4427 2.44849C15.7753 2.63286 16.0799 2.84928 16.3925 3.06571C16.4887 3.12983 16.2362 2.94146 16.3765 3.05368C16.4166 3.08575 16.4567 3.11781 16.5007 3.15388C16.5689 3.20999 16.633 3.2661 16.7011 3.32622C16.8454 3.45447 16.9857 3.58673 17.118 3.723C17.2542 3.85927 17.3825 4.00355 17.5067 4.15184C17.5508 4.20395 17.655 4.29212 17.671 4.35625C17.651 4.32819 17.631 4.30414 17.6109 4.27609C17.631 4.30414 17.655 4.3322 17.675 4.36025C17.7071 4.40434 17.7392 4.44442 17.7672 4.48851C17.9917 4.80513 18.1921 5.13778 18.3684 5.48246C18.4085 5.56262 18.4486 5.64278 18.4846 5.72293C18.5087 5.77103 18.5287 5.81912 18.5488 5.86722C18.6089 5.99547 18.5408 5.83515 18.5327 5.82313C18.6409 5.97944 18.6971 6.24396 18.7572 6.42431C18.8814 6.80506 18.9736 7.19383 19.0337 7.5866C19.0377 7.62267 19.0457 7.65874 19.0497 7.69481C19.0778 7.88719 19.0297 7.50644 19.0497 7.69882C19.0578 7.791 19.0698 7.88318 19.0778 7.97536C19.0978 8.18377 19.1059 8.38817 19.1059 8.59258C19.1099 9.0134 19.4746 9.41419 19.9074 9.39415C20.3403 9.37411 20.713 9.04146 20.709 8.59258C20.697 6.83312 20.1559 5.06564 19.1219 3.63483C18.0718 2.18397 16.633 1.08982 14.9457 0.480625C11.5911 -0.721739 7.63531 0.388444 5.41494 3.17793C4.2767 4.60473 3.60338 6.31209 3.49517 8.13969C3.39096 9.8751 3.84385 11.6506 4.75765 13.1255C5.65541 14.5763 6.99805 15.7827 8.56514 16.4681C10.2685 17.2135 12.1362 17.4179 13.9597 17.0252C17.3664 16.2917 20.1078 13.386 20.6088 9.93522C20.6729 9.48633 20.717 9.04146 20.717 8.58857C20.717 8.16774 20.3483 7.76695 19.9155 7.78699C19.4746 7.81104 19.1059 8.14369 19.1059 8.59258Z" fill="#023F45"/>
<path d="M11.2951 3.97163V8.0236C11.2951 8.21597 11.2871 8.41236 11.2951 8.60474C11.3111 8.96545 11.4955 9.15382 11.7199 9.37826C12.261 9.91932 12.802 10.4564 13.3391 10.9974L14.6978 12.3561C14.9943 12.6527 15.5394 12.6767 15.832 12.3561C16.1246 12.0355 16.1486 11.5385 15.832 11.2219L13.0585 8.44843L12.6658 8.05566C12.7459 8.24403 12.8221 8.4324 12.9022 8.62077V3.97564C12.9022 3.55481 12.5335 3.15402 12.1007 3.17406C11.6598 3.19009 11.2951 3.52275 11.2951 3.97163Z" fill="#023F45"/>
</svg>
