<svg width="32" height="36" viewBox="0 0 32 36" fill="none" xmlns="http://www.w3.org/2000/svg">
<path d="M31.3304 33.3167L30.8373 29.2339C30.8365 29.2271 30.8355 29.2203 30.8344 29.2136C30.699 28.3794 30.3101 27.6072 29.7207 27.0016C29.1313 26.396 28.3698 25.9865 27.5397 25.8285L22.5109 24.8826H22.5106L21.1486 24.6264C22.4685 24.3699 23.7679 24.0172 25.0364 23.5714C25.6028 23.3715 26.0824 22.9816 26.3935 22.4679C26.7047 21.9542 26.8281 21.3485 26.7429 20.754L25.9582 15.3746H26.396C26.6766 15.3743 26.9456 15.2627 27.144 15.0642C27.3425 14.8658 27.4541 14.5967 27.4544 14.3161V12.1672C27.4541 11.8865 27.3425 11.6175 27.144 11.419C26.9456 11.2206 26.6766 11.109 26.396 11.1087H25.5255C25.4575 10.9464 25.3714 10.7923 25.2689 10.6493L24.8312 7.64838C24.5209 5.52347 23.4562 3.58125 21.8316 2.17685C20.207 0.772458 18.1312 -0.000258399 15.9838 6.48188e-08H15.5871C13.4097 0.00287424 11.3079 0.799004 9.67506 2.23943C8.04219 3.67986 6.99009 5.66589 6.71562 7.82592L6.3038 11.1087H5.44275C5.16212 11.109 4.89306 11.2206 4.69462 11.419C4.49618 11.6175 4.38456 11.8865 4.38427 12.1672V14.3161C4.38456 14.5968 4.49618 14.8658 4.69462 15.0642C4.89306 15.2627 5.16212 15.3743 5.44275 15.3746H5.76872L5.0888 20.7946C5.01783 21.3797 5.14756 21.9716 5.45678 22.4733C5.766 22.9751 6.23637 23.357 6.79092 23.5566C8.09878 24.019 9.4397 24.382 10.8023 24.6424L9.64196 24.8706L9.63415 24.8721L4.66242 25.8498C3.88895 26.0031 3.17583 26.3755 2.60801 26.9226C2.04018 27.4697 1.64158 28.1685 1.45969 28.9357C1.45744 28.9449 1.45549 28.9542 1.45385 28.9635L0.70172 33.155C0.623712 33.4958 0.623513 33.8497 0.701138 34.1906C0.778764 34.5314 0.932216 34.8504 1.15009 35.1237C1.36796 35.3971 1.64465 35.6178 1.95958 35.7695C2.27451 35.9213 2.61959 36 2.96916 36H29.0312C29.3669 36 29.6986 35.9274 30.0036 35.7871C30.3086 35.6468 30.5796 35.4421 30.798 35.1872C31.0165 34.9323 31.1772 34.6331 31.2691 34.3102C31.3609 33.9874 31.3819 33.6484 31.3304 33.3167ZM25.7058 12.165L26.3997 12.1671L26.396 14.3199H25.7058V12.165ZM25.0043 16.1423L25.6992 20.9063C25.7495 21.2589 25.6761 21.618 25.4915 21.9225C25.3068 22.2271 25.0222 22.4581 24.6863 22.5764C23.2247 23.0903 21.7209 23.4751 20.1922 23.7266V21.6932L20.5737 21.4546C21.1295 21.1084 21.5986 20.6394 21.945 20.0836H22.031C22.6399 20.083 23.2237 19.8409 23.6543 19.4104C24.0849 18.98 24.3271 18.3963 24.3279 17.7874V16.6082C24.579 16.4938 24.8079 16.3361 25.0043 16.1423ZM17.9667 21.8416C17.3519 22.2228 16.6428 22.4248 15.9194 22.4248C15.1959 22.4248 14.4869 22.2228 13.872 21.8416L12.7787 21.1576C12.777 21.1564 12.775 21.1553 12.7732 21.1541L11.824 20.5603C11.3579 20.271 10.9737 19.8673 10.7078 19.3876C10.442 18.9078 10.3033 18.368 10.3051 17.8195V10.6833C10.8234 10.6122 11.3194 10.4269 11.7575 10.141C12.1956 9.85502 12.5647 9.47544 12.8384 9.0296C13.1736 9.36098 13.537 9.66258 13.9245 9.93101L14.0269 10.0007C16.4265 11.6271 19.017 11.248 21.5334 10.8167V17.8196C21.5339 18.2339 21.455 18.6445 21.301 19.029H17.7651C17.6577 18.725 17.4587 18.4617 17.1956 18.2754C16.9325 18.089 16.6181 17.9887 16.2956 17.9883H15.4001C14.987 17.9888 14.5909 18.1531 14.2988 18.4453C14.0067 18.7374 13.8424 19.1334 13.8419 19.5465V19.5662C13.8424 19.9793 14.0067 20.3753 14.2988 20.6674C14.5909 20.9595 14.987 21.1239 15.4001 21.1243H16.2956C16.6181 21.1239 16.9324 21.0237 17.1956 20.8373C17.4587 20.651 17.6577 20.3877 17.7651 20.0837H20.608C20.4294 20.2652 20.2302 20.4252 20.0144 20.5604L17.9667 21.8416ZM19.1375 22.3532V24.7542C19.1373 24.8142 19.1235 24.8733 19.0971 24.9272C19.0707 24.981 19.0324 25.0282 18.9852 25.0651L16.0067 27.3833L13.1564 25.0717C13.076 25.0069 13.0244 24.9129 13.0129 24.8103C13.0127 24.8064 13.0127 24.8025 13.0123 24.7987C13.0115 24.788 13.0105 24.7771 13.0105 24.7662V22.5468L13.3128 22.7359C14.0956 23.2212 14.9984 23.4784 15.9194 23.4783C16.8405 23.4783 17.7432 23.2211 18.526 22.7358L19.1375 22.3532ZM16.7991 19.5465V19.5661C16.7989 19.6996 16.7458 19.8276 16.6514 19.922C16.5571 20.0163 16.4291 20.0694 16.2956 20.0696H15.4001C15.2666 20.0694 15.1386 20.0163 15.0442 19.922C14.9499 19.8276 14.8968 19.6996 14.8966 19.5661V19.5465C14.8968 19.413 14.9499 19.285 15.0442 19.1906C15.1386 19.0962 15.2666 19.0431 15.4001 19.0429H16.2956C16.4291 19.0431 16.5571 19.0962 16.6515 19.1906C16.7458 19.285 16.7989 19.413 16.7991 19.5465ZM22.4353 18.96C22.5369 18.5884 22.5882 18.2048 22.5881 17.8196V16.819H23.2732V17.7874C23.2728 18.0457 23.1918 18.2974 23.0416 18.5076C22.8915 18.7178 22.6795 18.876 22.4353 18.9601V18.96ZM24.6511 12.0101V14.4732C24.6507 14.8155 24.5146 15.1437 24.2725 15.3857C24.0305 15.6278 23.7023 15.764 23.36 15.7643H22.5881V10.7189H23.36C23.7023 10.7193 24.0305 10.8555 24.2725 11.0975C24.5146 11.3396 24.6507 11.6678 24.6511 12.0101ZM7.76201 7.9572C8.00415 6.05197 8.93219 4.30025 10.3725 3.02978C11.8128 1.75932 13.6666 1.05716 15.5872 1.05469H15.9839C17.8779 1.05442 19.7088 1.73593 21.1418 2.9746C22.5747 4.21327 23.5139 5.92634 23.7876 7.80054L24.0758 9.77653C23.8445 9.70209 23.6031 9.66421 23.3601 9.66424H22.0874C22.0848 9.66417 22.0823 9.66438 22.0797 9.66424H22.0608L22.0587 9.66438C22.0423 9.66445 22.0259 9.66529 22.0095 9.66691L22.0025 9.66769C21.9923 9.66881 21.9823 9.66945 21.9722 9.6712L21.6113 9.73315C19.1104 10.164 16.7483 10.5709 14.6187 9.12762L14.5227 9.06223C13.992 8.69457 13.5144 8.2557 13.1032 7.75793C13.0431 7.68504 12.9644 7.62966 12.8755 7.59759C12.7866 7.56551 12.6907 7.55792 12.5979 7.5756C12.505 7.59328 12.4187 7.63558 12.3478 7.69809C12.2769 7.76059 12.2241 7.841 12.1949 7.9309C12.0307 8.43947 11.708 8.88211 11.274 9.19403C10.84 9.50594 10.3176 9.67074 9.78321 9.66431L9.78089 9.66438L9.7778 9.66424H8.47863C8.14884 9.66434 7.82283 9.73446 7.52217 9.86998L7.76201 7.9572ZM7.18756 12.01C7.18797 11.6677 7.32411 11.3396 7.56614 11.0976C7.80816 10.8556 8.13629 10.7194 8.47856 10.719H9.25039V15.7643H8.47856C8.13626 15.764 7.80808 15.6278 7.56604 15.3857C7.324 15.1437 7.18786 14.8155 7.18749 14.4732L7.18756 12.01ZM5.43888 14.3161L5.44268 12.1634H6.1328V14.3183L5.43888 14.3161ZM7.1427 22.5624C6.81427 22.444 6.53576 22.2176 6.35273 21.9204C6.16971 21.6231 6.09301 21.2725 6.13519 20.9259L6.74663 16.0517C6.96582 16.2933 7.23314 16.4864 7.53142 16.6186C7.8297 16.7507 8.15232 16.819 8.47856 16.819H9.25039V17.8196C9.24807 18.547 9.43195 19.2629 9.78454 19.8992C10.1371 20.5354 10.6467 21.0709 11.2647 21.4545L11.9559 21.8869V23.7712C10.3172 23.5199 8.7057 23.1151 7.1427 22.5624ZM12.1303 25.4561C12.2212 25.6234 12.3441 25.7711 12.492 25.8909L15.4079 28.2555C15.574 28.3914 15.7815 28.4666 15.9961 28.4687C16.2108 28.4708 16.4197 28.3996 16.5884 28.267L19.6327 25.8976C19.7786 25.7836 19.9013 25.6427 19.994 25.4824L21.8204 25.8259C21.7525 26.0324 21.6251 26.2143 21.4543 26.3488L16.0288 30.5714C16.0066 30.5887 15.9791 30.598 15.951 30.5977C15.9228 30.5974 15.8955 30.5876 15.8737 30.5698L10.6762 26.3544C10.5039 26.2147 10.3785 26.0258 10.3167 25.8128L12.1303 25.4561ZM29.9994 34.4985C29.88 34.6387 29.7316 34.7512 29.5644 34.8284C29.3973 34.9056 29.2153 34.9454 29.0312 34.9453H2.96916C2.7774 34.9453 2.58813 34.902 2.4155 34.8185C2.24288 34.735 2.09138 34.6135 1.97234 34.4632C1.85331 34.3129 1.76983 34.1376 1.72814 33.9504C1.68646 33.7632 1.68766 33.569 1.73166 33.3824C1.73381 33.3732 1.73571 33.3638 1.73735 33.3544L2.48928 29.1644C2.62644 28.5971 2.92314 28.081 3.34431 27.677C3.76548 27.273 4.29351 26.998 4.86598 26.8846L9.27851 26.017C9.3895 26.4727 9.64732 26.8792 10.0122 27.1739L15.2097 31.3891C15.4163 31.5578 15.6742 31.6511 15.9409 31.6537C16.2076 31.6563 16.4672 31.568 16.6771 31.4033L22.1027 27.1807C22.4777 26.8896 22.7454 26.482 22.8634 26.0222L27.3444 26.865C27.9597 26.9821 28.5243 27.2851 28.9619 27.7333C29.3995 28.1814 29.6891 28.753 29.7915 29.3709L30.2844 33.4526C30.2852 33.4593 30.2862 33.4659 30.2873 33.4727C30.3165 33.6543 30.3058 33.8401 30.2561 34.0173C30.2064 34.1944 30.1188 34.3586 29.9993 34.4985H29.9994Z" fill="#023F45"/>
</svg>
